# xmcd
#
# Track frame offsets:
#	150
#	20555
#	38883
#	53721
#	73879
#	94358
#	110104
#	126023
#	145042
#	164938
#	184199
#
# Disc length: 2772 seconds
#
# Revision: 1
# Processed by: cddbd v1.5.2PL0 Copyright (c) Steve Scherf et al.
# Submitted via: audiograbber 1.83.01
#
DISCID=a80ad20b
DTITLE=강허달림 - 2
DYEAR=1900
DGENRE=
TTITLE0=한번쯤은 좀 어때
TTITLE1=죽도록 사랑해도 괜찮아
TTITLE2=사랑이란
TTITLE3=꼭 안아 주세요
TTITLE4=작은 새 한 마리
TTITLE5=아무도 모르고
TTITLE6=넌 나의 바다
TTITLE7=다시 사랑하는 사람
TTITLE8=소리쳐
TTITLE9=멈춰버린 세상
TTITLE10=그리되기를
EXTD=
EXTT0=
EXTT1=
EXTT2=
EXTT3=
EXTT4=
EXTT5=
EXTT6=
EXTT7=
EXTT8=
EXTT9=
EXTT10=
PLAYORDER=
